<?xml version="1.0" standalone="no"?>
<!DOCTYPE svg PUBLIC "-//W3C//DTD SVG 20010904//EN"
 "http://www.w3.org/TR/2001/REC-SVG-20010904/DTD/svg10.dtd">
<svg version="1.0" xmlns="http://www.w3.org/2000/svg"
 width="300.000000pt" height="298.000000pt" viewBox="0 0 300.000000 298.000000"
 preserveAspectRatio="xMidYMid meet">
<metadata>
Created by potrace 1.16, written by Peter Selinger 2001-2019
</metadata>
<g transform="translate(0.000000,298.000000) scale(0.100000,-0.100000)"
fill="#000000" stroke="none">
<path d="M342 2733 c-38 -15 -49 -97 -16 -124 11 -9 14 -46 14 -172 l0 -161
-75 -77 -75 -77 0 -128 0 -128 -40 39 -40 39 0 219 0 220 16 11 c10 8 16 27
16 51 0 68 -62 97 -116 54 -33 -26 -36 -77 -6 -104 l21 -19 -2 -234 c-1 -187
1 -236 12 -246 8 -7 86 -80 174 -163 88 -82 170 -155 182 -161 15 -8 107 -12
295 -12 l273 -1 40 -34 40 -34 -12 -21 c-7 -11 -13 -27 -13 -35 0 -22 -10 -19
-59 20 l-44 35 -175 0 -174 0 6 -37 c11 -59 68 -144 121 -180 65 -45 133 -63
237 -63 l88 0 0 -58 c0 -45 17 -108 79 -293 l78 -235 8 -104 c8 -117 20 -148
67 -178 18 -11 44 -37 58 -58 42 -61 72 -78 150 -82 39 -2 86 -1 106 2 37 7
114 69 114 92 0 7 20 27 44 43 57 40 76 87 76 193 l0 81 82 246 c60 179 83
260 83 298 l0 51 110 4 110 3 57 28 c84 41 147 122 163 210 l7 37 -165 0 c-91
0 -177 -4 -190 -9 -14 -5 -41 -24 -61 -41 l-36 -32 0 24 c0 13 -5 29 -12 36
-9 9 -3 21 27 52 l39 40 284 0 285 0 135 128 c74 70 160 150 190 178 l54 52
-3 228 -4 229 18 25 c45 64 -15 142 -88 114 -41 -16 -53 -96 -19 -125 l14 -11
0 -217 0 -217 -40 -39 -40 -39 0 128 0 128 -75 77 -75 77 0 157 0 156 20 34
c24 41 19 80 -13 102 -68 48 -152 -43 -102 -109 12 -16 15 -56 15 -193 l0
-173 75 -79 75 -78 0 -151 0 -150 -82 -76 -81 -76 -226 0 -225 0 34 35 34 35
144 0 144 0 52 45 c29 25 63 45 75 45 30 0 61 35 61 70 0 40 -31 70 -73 70
-38 0 -67 -25 -67 -58 0 -12 -14 -37 -31 -57 l-31 -35 -93 0 -93 0 119 117
119 116 0 150 0 149 20 25 c27 34 25 69 -5 98 -31 32 -69 32 -100 0 -30 -29
-32 -64 -5 -98 l20 -25 0 -133 0 -132 -42 -41 -43 -40 -3 94 -3 94 -114 117
c-69 71 -115 125 -115 137 0 34 -11 52 -41 68 -77 39 -145 -51 -84 -111 13
-14 35 -25 47 -25 16 0 55 -32 126 -103 l102 -102 0 -125 0 -126 -137 -130
c-76 -71 -164 -154 -195 -183 l-58 -54 -30 13 c-16 7 -30 17 -30 22 0 5 50 57
110 115 l110 105 0 116 0 115 -90 91 -89 91 -26 -25 -25 -26 80 -86 80 -86 0
-74 0 -73 -92 -91 c-51 -49 -103 -98 -115 -108 l-21 -18 -22 12 c-30 16 -62 3
-58 -23 2 -15 39 -46 121 -101 l117 -78 0 -147 0 -147 -65 -193 c-35 -107 -67
-196 -69 -199 -3 -3 -35 21 -71 52 l-65 58 0 179 0 178 90 61 90 61 0 32 0 32
-121 80 c-67 44 -126 82 -131 84 -5 2 -8 -16 -6 -40 l3 -43 82 -57 83 -56 -63
-43 c-34 -24 -72 -52 -84 -63 l-23 -20 0 -205 0 -205 90 -86 90 -86 0 -103 0
-103 -25 -24 -24 -25 -179 0 -179 0 -27 21 -26 20 0 107 0 107 90 85 90 86 0
206 c0 160 -3 210 -13 220 -8 7 -44 33 -80 58 -37 25 -67 48 -67 52 0 5 36 32
80 60 l80 53 0 43 c0 23 -3 42 -7 41 -5 0 -62 -37 -128 -82 l-120 -82 -3 -31
-3 -31 88 -60 88 -60 3 -180 2 -181 -62 -56 c-35 -31 -66 -56 -70 -56 -3 0
-36 89 -72 198 l-66 197 0 146 0 145 118 80 117 79 0 25 c0 18 -6 26 -23 28
-13 2 -30 -2 -37 -8 l-15 -12 -77 70 c-43 39 -95 88 -117 110 l-38 40 7 78 7
78 75 80 74 79 -26 26 -26 26 -89 -91 -90 -91 0 -114 -1 -114 118 -111 118
-112 -37 -18 -37 -17 -53 48 c-29 27 -117 111 -195 187 l-143 138 0 116 0 116
101 109 c75 81 107 109 126 109 30 0 73 42 73 72 0 13 -7 33 -15 45 -40 57
-134 23 -135 -49 0 -15 -8 -33 -17 -40 -10 -7 -62 -59 -115 -115 l-98 -101 0
-92 0 -93 -44 39 -44 39 -1 133 -1 134 20 25 c28 36 26 77 -6 102 -35 28 -69
26 -99 -4 -30 -29 -32 -64 -5 -98 l20 -25 0 -150 0 -150 123 -116 122 -115
-96 -1 -95 0 -32 33 c-19 20 -32 43 -32 58 0 55 -79 80 -120 39 -40 -40 -12
-120 41 -120 12 0 46 -20 75 -45 l52 -45 142 0 141 0 35 -27 c18 -16 34 -31
34 -35 0 -5 -99 -8 -221 -8 l-221 0 -84 77 -84 76 0 150 0 150 74 77 74 78 1
177 0 178 16 17 c49 55 -22 142 -93 113z m58 -64 c0 -12 -29 -24 -37 -16 -3 4
-3 13 0 21 6 16 37 11 37 -5z m2240 -5 c0 -17 -26 -19 -36 -3 -7 12 15 31 28
23 4 -3 8 -12 8 -20z m-2552 -217 c2 -10 -3 -17 -12 -17 -18 0 -29 16 -21 31
9 14 29 6 33 -14z m2857 2 c0 -7 -8 -15 -17 -17 -18 -3 -25 18 -11 32 10 10
28 1 28 -15z m-1971 -24 c-1 -18 -34 -18 -34 0 0 10 7 15 18 13 9 -2 17 -8 16
-13z m1086 0 c0 -8 -6 -15 -14 -15 -17 0 -28 14 -19 24 12 12 33 6 33 -9z
m-1510 -26 c0 -12 -29 -24 -37 -16 -3 4 -3 13 0 21 6 16 37 11 37 -5z m1938
-2 c2 -10 -3 -17 -12 -17 -18 0 -29 16 -21 31 9 14 29 6 33 -14z m-2058 -527
c0 -11 -6 -20 -14 -20 -18 0 -29 16 -21 30 11 18 35 11 35 -10z m2175 0 c0
-22 -29 -18 -33 3 -3 14 1 18 15 15 10 -2 18 -10 18 -18z m-1686 -474 c15 -8
45 -34 67 -58 l39 -43 -90 -3 c-50 -2 -106 1 -125 7 -38 11 -104 62 -120 92
l-11 19 106 0 c73 0 115 -5 134 -14z m1392 -3 c-16 -31 -64 -71 -103 -87 -39
-17 -228 -23 -228 -8 0 11 92 98 110 105 8 3 64 6 123 6 l108 1 -10 -17z
m-721 -1100 c-38 -27 -119 -29 -166 -5 l-39 21 115 1 114 0 -24 -17z"/>
<path d="M665 2588 c-45 -24 -59 -76 -30 -114 10 -13 14 -45 15 -106 0 -49 4
-88 8 -88 4 0 22 15 40 33 l32 33 0 56 c0 37 5 60 15 68 21 17 19 83 -2 102
-26 23 -55 29 -78 16z m43 -65 c-2 -10 -10 -18 -18 -18 -8 0 -16 8 -18 18 -2
12 3 17 18 17 15 0 20 -5 18 -17z"/>
<path d="M2285 2590 c-48 -19 -65 -82 -32 -118 11 -12 17 -36 17 -72 l0 -53
35 -38 35 -39 0 87 0 88 20 25 c34 43 25 92 -21 115 -15 8 -29 15 -31 14 -2 0
-12 -4 -23 -9z m40 -70 c0 -22 -29 -18 -33 3 -3 14 1 18 15 15 10 -2 18 -10
18 -18z"/>
<path d="M842 2147 l-32 -33 0 -99 0 -100 35 -28 35 -28 0 161 c0 88 -1 160
-3 160 -2 0 -17 -15 -35 -33z"/>
<path d="M2120 2021 l0 -163 40 32 40 32 0 92 0 92 -40 39 -40 39 0 -163z"/>
<path d="M1140 1220 c0 -52 26 -98 64 -117 l36 -17 1 -115 c0 -64 4 -124 7
-134 l7 -18 33 34 33 34 -3 129 -3 129 -75 52 c-41 29 -81 52 -87 53 -8 0 -13
-13 -13 -30z"/>
<path d="M1770 1204 c-36 -24 -71 -52 -77 -61 -9 -11 -13 -57 -13 -138 l0
-121 33 -32 c36 -35 45 -39 44 -19 0 6 1 67 1 134 l2 123 34 14 c19 8 39 23
45 34 12 23 15 112 4 111 -5 0 -37 -20 -73 -45z"/>
<path d="M932 634 c-51 -175 -92 -327 -92 -336 0 -15 163 -153 321 -271 l36
-27 58 0 58 0 -49 39 c-27 22 -116 92 -197 156 -107 85 -146 122 -143 134 3 9
31 106 61 216 31 110 62 218 69 240 l13 40 -22 64 -21 64 -92 -319z"/>
<path d="M1953 890 l-21 -59 23 -78 c85 -286 126 -434 121 -442 -3 -5 -88 -73
-188 -152 -101 -78 -187 -146 -192 -151 -6 -4 17 -8 51 -8 l61 0 175 137 c120
95 176 144 176 158 1 18 -174 643 -181 651 -2 1 -13 -24 -25 -56z"/>
<path d="M1057 523 c-26 -93 -47 -173 -47 -179 0 -7 68 -65 152 -130 84 -66
179 -140 212 -166 l61 -48 65 0 65 0 205 160 c113 88 209 166 214 174 10 14
-81 356 -94 356 -4 0 -14 -26 -24 -57 l-17 -58 31 -105 30 -105 -13 -10 c-7
-5 -62 -48 -121 -95 -180 -141 -271 -210 -278 -210 -3 0 -86 63 -184 140 -97
77 -187 148 -200 158 l-24 17 30 105 31 105 -17 58 c-10 31 -20 57 -24 57 -4
0 -28 -75 -53 -167z"/>
<path d="M1317 603 c-4 -3 -7 -21 -7 -39 0 -41 74 -134 108 -134 l22 0 0 36
c0 26 -8 46 -30 71 -16 18 -30 40 -30 47 0 21 -48 35 -63 19z"/>
<path d="M1634 603 c-6 -5 -15 -19 -19 -33 -4 -13 -19 -33 -32 -43 -19 -15
-23 -27 -21 -56 l3 -36 28 -3 c18 -2 27 1 27 11 0 7 16 28 36 46 l35 32 -3 42
c-2 33 -7 43 -23 45 -11 1 -25 -1 -31 -5z"/>
</g>
</svg>
