<?xml version="1.0" encoding="UTF-8"?>
<svg id="Layer_1" xmlns="http://www.w3.org/2000/svg" version="1.1" viewBox="0 0 4000 4000">
  <defs>
    <style>
      .st0 {
        fill: #000000;
      }
    </style>
  </defs>
  <polygon class="st0" points="1926.78 2973.03 1926.78 2890.5 1858.26 2830.09 1858.26 2767.46 1779.79 2767.46 1780.16 2874.3 1855.31 2928.82 1855.31 2973.03 1926.78 2973.03"/>
  <polygon class="st0" points="1536.28 2650.22 1410.29 3086.21 2000 3545.97 2589.71 3086.21 2463.72 2650.22 2415.09 2797.21 2486.92 3052.51 2000 3431.03 1513.08 3052.51 1584.91 2797.21 1536.28 2650.22"/>
  <path class="st0" d="M1783.66,2431.58v-262.92c0-27.19-13.72-52.55-36.48-67.43l-172.03-112.46v85.42c0,36.38,20.71,69.59,53.37,85.6l65.99,32.34v332.29l89.15-92.84Z"/>
  <polygon class="st0" points="1264.04 1287.34 1264.04 889.47 1168.26 974.94 1168.26 1192.29 1264.04 1287.34"/>
  <path class="st0" d="M992.72,563.23v223.27l87.68-88.41v-134.86c25.99-15.12,43.47-43.26,43.47-75.49,0-48.22-39.09-87.31-87.31-87.31s-87.31,39.09-87.31,87.31c0,32.24,17.48,60.37,43.47,75.49ZM1036.56,463.42c13.43,0,24.31,10.89,24.31,24.31s-10.89,24.31-24.31,24.31-24.31-10.89-24.31-24.31,10.89-24.31,24.31-24.31Z"/>
  <path class="st0" d="M3700.74,487.74c-48.22,0-87.31,39.09-87.31,87.31,0,31.95,17.17,59.88,42.78,75.1v525.02l-98.73,91.81v-305.67l-176.83-187.15v-384.73c26.77-14.91,44.9-43.49,44.9-76.31,0-48.22-39.09-87.31-87.31-87.31s-87.31,39.09-87.31,87.31c0,32.26,17.5,60.4,43.52,75.52v416.84l174.62,188.62v355.1l-194.14,180.55h-543.98l84.5-80.59h344.82l111.74-105.28c8.32,2.63,17.17,4.06,26.36,4.06,48.22,0,87.31-39.09,87.31-87.31s-39.09-87.31-87.31-87.31-87.31,39.09-87.31,87.31c0,7.53.95,14.83,2.74,21.8l-78.77,80.71h-223.98l291.77-286.61v-361.6c27.33-14.75,45.91-43.65,45.91-76.88,0-48.22-39.09-87.31-87.31-87.31s-87.31,39.09-87.31,87.31c0,32.14,17.38,60.21,43.24,75.36v321.31l-102.14,97.27v-218.2l-283.55-287.34c2.78-8.53,4.31-17.63,4.31-27.09,0-48.22-39.09-87.31-87.31-87.31s-87.31,39.09-87.31,87.31,39.09,87.31,87.31,87.31c6.5,0,12.83-.73,18.92-2.08l253.69,260.14v276.72l-476.84,454.13-79.98-49.31,279.61-263.6v-265.24l-216.62-223.25-59.68,59.68,185.67,188.99v206.67l-265.57,249.54-41.15-25.37c-18.25-11.25-42.18-5.23-52.93,13.32-10.09,17.41-4.89,39.67,11.87,50.81l273.92,182.06v346.48l-162.83,483.34-162.46-148.83v-423.66l220.3-143.67v-66.31l-307.98-212.2v106.47l198.2,135.57-202.8,131.89v502.22l172.41,164.3c38.68,31.31,44.39,73.31,44.39,73.31v192.3c0,74.05-70.73,81.78-70.73,81.78h-416.1s-70.73-7.74-70.73-81.78v-192.3s5.71-42,44.39-73.31l172.41-164.3v-502.22l-202.8-131.89,198.2-135.57v-106.47l-307.98,212.2v66.31l220.3,143.67v423.66l-162.46,148.83-162.83-483.34v-346.48l273.92-182.06c16.76-11.14,21.96-33.39,11.87-50.81-10.75-18.55-34.68-24.57-52.93-13.32l-41.15,25.37-265.57-249.54v-206.67l185.67-188.99-59.68-59.68-216.62,223.25v265.24l279.61,263.6-79.98,49.31-476.84-454.13v-276.72l253.69-260.14c6.1,1.35,12.42,2.08,18.92,2.08,48.22,0,87.31-39.09,87.31-87.31s-39.09-87.31-87.31-87.31-87.31,39.09-87.31,87.31c0,9.46,1.52,18.56,4.31,27.09l-283.55,287.34v218.2l-102.14-97.27v-321.31c25.86-15.16,43.24-43.22,43.24-75.36,0-48.22-39.09-87.31-87.31-87.31s-87.31,39.09-87.31,87.31c0,33.24,18.58,62.13,45.91,76.88v361.6l291.77,286.61h-223.98l-78.77-80.71c1.79-6.97,2.74-14.27,2.74-21.8,0-48.22-39.09-87.31-87.31-87.31s-87.31,39.09-87.31,87.31,39.09,87.31,87.31,87.31c9.19,0,18.04-1.43,26.36-4.06l111.74,105.28h344.82l84.5,80.59h-543.98l-194.14-180.55v-355.1l174.62-188.62v-416.84c26.01-15.12,43.52-43.27,43.52-75.52,0-48.22-39.09-87.31-87.31-87.31s-87.31,39.09-87.31,87.31c0,32.82,18.12,61.4,44.9,76.31v384.73l-176.83,187.15v305.67l-98.73-91.81v-525.02c25.61-15.22,42.78-43.15,42.78-75.1,0-48.22-39.09-87.31-87.31-87.31s-87.31,39.09-87.31,87.31c0,33.05,18.37,61.81,45.45,76.63v563.55l442.07,408.64h668.29l106.68,101.74-35.6,21.95v60.61l-76.15-62.94c-27.27-22.54-61.55-34.87-96.93-34.87h-364.68c56.36,343.99,363.88,332.39,363.88,332.39h173.88v143.77l196.63,589.34v196.45s16.3,91.18,125.16,132.62c0,0,22.65,153.62,239.36,143.67,216.71,9.95,239.36-143.67,239.36-143.67,108.86-41.44,125.16-132.62,125.16-132.62v-196.45l196.63-589.34v-143.77h173.88s307.52,11.6,363.88-332.39h-364.68c-35.38,0-69.66,12.33-96.93,34.87l-76.15,62.94v-60.61l-35.6-21.95,106.68-101.74h668.29l442.07-408.64v-563.55c27.08-14.83,45.45-43.58,45.45-76.63,0-48.22-39.09-87.31-87.31-87.31ZM3338.24,337.43c-13.43,0-24.31-10.89-24.31-24.31s10.89-24.31,24.31-24.31,24.31,10.89,24.31,24.31-10.89,24.31-24.31,24.31ZM3298.36,1236.32c13.43,0,24.31,10.89,24.31,24.31s-10.89,24.31-24.31,24.31-24.31-10.89-24.31-24.31,10.89-24.31,24.31-24.31ZM3161.41,613.73c13.43,0,24.31,10.89,24.31,24.31s-10.89,24.31-24.31,24.31-24.31-10.89-24.31-24.31,10.89-24.31,24.31-24.31ZM2648.65,623.67c-13.43,0-24.31-10.89-24.31-24.31s10.89-24.31,24.31-24.31,24.31,10.89,24.31,24.31-10.89,24.31-24.31,24.31ZM1351.35,575.05c13.43,0,24.31,10.89,24.31,24.31s-10.89,24.31-24.31,24.31-24.31-10.89-24.31-24.31,10.89-24.31,24.31-24.31ZM838.59,662.36c-13.43,0-24.31-10.89-24.31-24.31s10.89-24.31,24.31-24.31,24.31,10.89,24.31,24.31-10.89,24.31-24.31,24.31ZM701.64,1284.94c-13.43,0-24.31-10.89-24.31-24.31s10.89-24.31,24.31-24.31,24.31,10.89,24.31,24.31-10.89,24.31-24.31,24.31ZM661.76,288.8c13.43,0,24.31,10.89,24.31,24.31s-10.89,24.31-24.31,24.31-24.31-10.89-24.31-24.31,10.89-24.31,24.31-24.31ZM299.26,599.36c-13.43,0-24.31-10.89-24.31-24.31s10.89-24.31,24.31-24.31,24.31,10.89,24.31,24.31-10.89,24.31-24.31,24.31ZM1438.84,1956.39c-363.33,46.88-418.41-149.89-418.41-149.89h203.62c35.82,0,70.99,10.15,101.03,29.68,52.26,33.98,91.49,80.71,113.76,111.31v8.9ZM2000,3167.54s-91.27,14.37-143.21-52.31h286.42c-51.94,66.68-143.21,52.31-143.21,52.31ZM2561.16,1947.49c22.27-30.6,61.5-77.33,113.76-111.31,30.03-19.53,65.2-29.68,101.03-29.68h203.62s-55.08,196.77-418.41,149.89v-8.9ZM3700.74,599.36c-13.43,0-24.31-10.89-24.31-24.31s10.89-24.31,24.31-24.31,24.31,10.89,24.31,24.31-10.89,24.31-24.31,24.31Z"/>
  <polygon class="st0" points="2219.84 2874.3 2220.21 2767.46 2141.74 2767.46 2141.74 2830.09 2073.22 2890.5 2073.22 2973.03 2144.69 2973.03 2144.69 2928.82 2219.84 2874.3"/>
  <polygon class="st0" points="2514.55 2504.33 2686.96 3115.5 2000 3662.57 1313.04 3115.5 1485.45 2504.33 1432.4 2347.4 1203.62 3144.24 2000 3774.19 2796.38 3144.24 2567.6 2347.4 2514.55 2504.33"/>
  <path class="st0" d="M2216.34,2168.65v262.92l89.15,92.84v-332.29l65.99-32.34c32.67-16.01,53.37-49.22,53.37-85.6v-85.42l-172.03,112.46c-22.76,14.88-36.48,40.24-36.48,67.43Z"/>
  <polygon class="st0" points="2735.96 889.47 2735.96 1287.34 2831.74 1192.29 2831.74 974.94 2735.96 889.47"/>
  <path class="st0" d="M2919.61,563.23v134.86l87.68,88.41v-223.27c25.99-15.12,43.47-43.26,43.47-75.49,0-48.22-39.09-87.31-87.31-87.31s-87.31,39.09-87.31,87.31c0,32.24,17.48,60.37,43.47,75.49ZM2963.44,463.42c13.43,0,24.31,10.89,24.31,24.31s-10.89,24.31-24.31,24.31-24.31-10.89-24.31-24.31,10.89-24.31,24.31-24.31Z"/>
</svg>